<svg width="179" height="36" viewBox="0 0 179 36" fill="none" xmlns="http://www.w3.org/2000/svg">
<path d="M50.1683 26.7369H54.8978V12.9266H50.1683V14.63C48.7573 13.3983 46.5886 12.5859 44.263 12.5859C39.3768 12.5859 36.189 15.4423 36.189 19.8711C36.189 24.195 39.4552 27.1038 44.2369 27.1038C46.5886 27.1038 48.7312 26.2914 50.1683 25.0597V26.7369ZM50.1683 19.8449C50.1683 22.282 48.4177 23.9329 45.5434 23.9329C42.5646 23.9329 40.8139 22.3606 40.8139 19.8711C40.8139 17.2767 42.5124 15.7568 45.5434 15.7568C48.4177 15.7568 50.1683 17.3815 50.1683 19.8449Z" fill="white"/>
<path d="M71.0303 26.7369H75.7597V8.02621H71.0303V14.63C69.6192 13.3983 67.4505 12.5859 65.1249 12.5859C60.2648 12.5859 57.0509 15.4685 57.0509 19.8711C57.0509 24.2474 60.2648 27.1038 65.0988 27.1038C67.4505 27.1038 69.5931 26.2914 71.0303 25.0597V26.7369ZM71.0303 19.8449C71.0303 22.282 69.2796 23.9329 66.4053 23.9329C63.4004 23.9329 61.6758 22.413 61.6758 19.8711C61.6758 17.2767 63.4004 15.7568 66.4053 15.7568C69.2796 15.7568 71.0303 17.3815 71.0303 19.8449Z" fill="white"/>
<path d="M82.9284 26.7631V8.02621H78.1989V26.7631H82.9284Z" fill="white"/>
<path d="M103.812 19.8711C103.812 15.4948 100.102 12.5859 94.4315 12.5859C88.7875 12.5859 85.0771 15.4948 85.0771 19.8711C85.0771 24.2212 88.7875 27.1038 94.4315 27.1038C100.102 27.1038 103.812 24.2212 103.812 19.8711ZM99.1871 19.8711C99.1871 22.3868 97.4103 23.9329 94.4577 23.9329C91.4528 23.9329 89.7021 22.3868 89.7021 19.8711C89.7021 17.3029 91.4528 15.7568 94.4577 15.7568C97.4103 15.7568 99.1871 17.3029 99.1871 19.8711Z" fill="white"/>
<path d="M124.413 19.8711C124.413 15.4948 120.703 12.5859 115.032 12.5859C109.388 12.5859 105.678 15.4948 105.678 19.8711C105.678 24.2212 109.388 27.1038 115.032 27.1038C120.703 27.1038 124.413 24.2212 124.413 19.8711ZM119.788 19.8711C119.788 22.3868 118.011 23.9329 115.059 23.9329C112.054 23.9329 110.303 22.3868 110.303 19.8711C110.303 17.3029 112.054 15.7568 115.059 15.7568C118.011 15.7568 119.788 17.3029 119.788 19.8711Z" fill="white"/>
<path d="M137.278 18.0105L142.686 12.9266H137.251L130.928 18.8228V8H126.199V26.7631H130.928V23.8805L134.273 20.9979L137.905 26.7631H143L137.278 18.0105Z" fill="white"/>
<path fill-rule="evenodd" clip-rule="evenodd" d="M16.4763 17.4139L17.8284 20.6086C18.1546 21.3794 18.907 21.8833 19.744 21.8914L22.5349 21.9184L18.6596 12.3128L18.6586 12.3106C18.656 12.3042 18.653 12.297 18.6497 12.289C18.6226 12.2232 18.5747 12.1067 18.4963 11.9884C18.3534 11.7729 18.1589 11.5316 17.9068 11.3625C17.6773 11.2086 17.4596 11.1074 17.1632 11.0462C17.0476 11.0223 16.9683 11.0059 16.858 11.0059C16.8483 11.0059 16.8367 11.0058 16.8233 11.0056C16.7404 11.0044 16.592 11.0024 16.4564 11.0318C16.1996 11.0765 15.9992 11.1812 15.8232 11.2875L15.816 11.2918L15.8091 11.2965C15.5971 11.4386 15.3885 11.6015 15.2196 11.8563L15.2156 11.8623L15.2119 11.8684C14.7514 12.6294 13.0774 15.4357 11.5345 18.0441C11.5345 18.0441 9.01714 22.0076 8.6554 22.641C8.15689 23.5139 8.02146 23.9414 8.00206 24.5245C7.97407 25.3658 8.23243 26.0865 8.71212 26.6125C9.19072 27.1374 9.86773 27.4445 10.6345 27.5004L10.6472 27.5014H23.2902C24.7812 27.5014 25.9599 27.3235 26.9761 26.9438C27.9952 26.5631 28.8304 25.9872 29.6437 25.2203L29.6461 25.218C31.189 23.7351 32.1479 21.6339 32.2165 19.4273C32.285 17.2915 31.5323 15.1924 30.1966 13.6078L30.194 13.6047L30.1913 13.6016C29.0767 12.3405 27.0566 11.0834 23.8619 10.7111C23.1694 10.6262 22.2595 10.5931 21.5315 10.5807C21.1655 10.5744 20.8419 10.5734 20.6098 10.5739C20.4938 10.5742 19.7276 10.5844 19.6632 10.585L19.9313 11.0906C20.0576 11.3288 20.3679 12.0934 20.6439 12.7937C20.9751 13.6345 21.7919 14.1426 22.6551 14.1996C24.8848 14.3467 26.3 15.1397 27.1527 16.1132C28.0108 17.0928 28.3262 18.286 28.2981 19.274L28.2981 19.2748C28.2676 20.4399 27.7797 21.5388 26.9645 22.298L26.9621 22.3002L26.9599 22.3024C26.1886 23.0471 25.2359 23.5254 24.1484 23.5254H12.8376C13.3978 22.5937 14.6176 20.5397 16.4763 17.4139Z" fill="#DD5235"/>
</svg>
