<svg width="258" height="304" viewBox="0 0 258 304" fill="none" xmlns="http://www.w3.org/2000/svg">
<path fill-rule="evenodd" clip-rule="evenodd" d="M114.679 1.52653C120.543 4.2412 124.037 9.34514 127.84 20.7493C130.601 29.0312 134.258 35.1113 138.487 38.4544C139.985 39.6387 144.809 42.1914 149.205 44.1262C158.782 48.3409 167.568 54.0198 170.772 58.0671C175.744 64.3466 184.46 82.3715 184.46 86.3757C184.46 87.0519 183.473 87.9348 182.267 88.3367L180.074 89.068V99.3692C180.074 108.14 179.832 110.152 178.448 112.92L176.822 116.172L215.132 123.164C236.204 127.01 254.251 130.341 255.237 130.566L257.032 130.976V153.508V176.04L248.061 178.343L239.091 180.646L237.756 194.602C237.023 202.278 236.395 208.824 236.36 209.149C236.326 209.473 232.798 211.502 228.521 213.657C221.058 217.417 220.842 217.599 223.138 218.184C224.454 218.518 231.632 220.478 239.088 222.538L252.646 226.284L252.858 245.372L253.072 264.459L175.3 283.841L97.5286 303.223L77.3943 296.444C49.9877 287.215 6.00604 272.045 2.83124 270.725L0.23938 269.648L0.251343 254.256C0.258545 245.789 0.527283 238.504 0.849487 238.066C1.17166 237.627 2.72437 236.673 4.29861 235.946C6.75648 234.811 7.11934 234.303 6.86255 232.357C5.93587 225.343 4.48444 194.891 5.04826 194.295C5.4167 193.908 12.4003 191.884 20.5674 189.798C28.7354 187.713 35.577 185.848 35.7716 185.654C35.9654 185.459 29.3582 183.409 21.089 181.098C12.819 178.787 5.65038 176.647 5.15912 176.343C4.42383 175.889 1.03688 151.071 1.03688 146.143C1.03688 144.998 4.40628 143.685 18.7811 139.223C28.5408 136.193 36.853 133.432 37.2542 133.086C37.68 132.717 35.3697 122.213 31.6845 107.758C28.2202 94.1743 25.5677 82.8795 25.7894 82.6578C26.0103 82.4361 36.0101 81.6051 48.0099 80.81L69.8277 79.3649L71.961 71.7887C73.1349 67.6219 74.5704 63.3154 75.1518 62.2188C77.5562 57.6843 82.1833 52.4591 86.4355 49.4765C91.7683 45.7363 92.0004 44.9962 91.0059 34.8992C89.2506 17.0696 93.0634 4.5267 101.283 1.0919C104.891 -0.415358 110.907 -0.219972 114.679 1.52653ZM96.6944 20.0858L94.1313 20.979L94.5946 26.5008C95.3235 35.1982 99.3341 40.2519 105.508 40.2519C114.711 40.2519 117.036 30.1062 109.776 21.6249C106.896 18.2595 106.754 18.1973 103.046 18.6894C100.963 18.9661 98.1044 19.5945 96.6944 20.0858ZM107.103 24.338C107.103 24.9959 106.962 25.5342 106.79 25.5342C106.618 25.5342 106.27 24.9959 106.017 24.338C105.765 23.6801 105.906 23.1418 106.331 23.1418C106.756 23.1418 107.103 23.6801 107.103 24.338ZM100.596 26.4729C100.674 27.776 101.266 28.737 102.119 28.9411C103.434 29.2553 103.432 29.3111 102.085 29.8957C100.148 30.7363 99.7552 30.1517 100.14 27.0064C100.412 24.7981 100.49 24.7064 100.596 26.4729ZM98.3309 27.1292C98.3309 27.5678 97.972 27.9267 97.5334 27.9267C97.0948 27.9267 96.7359 27.5678 96.7359 27.1292C96.7359 26.6906 97.0948 26.3317 97.5334 26.3317C97.972 26.3317 98.3309 26.6906 98.3309 27.1292ZM108.698 31.2849C108.698 31.962 108.101 33.0091 107.371 33.6112C106.157 34.6121 106.133 34.5355 107.081 32.7117C108.47 30.0385 108.698 29.8367 108.698 31.2849ZM136.841 48.1431C134.236 50.928 130 56.2217 127.427 59.9061C115.568 76.8951 109.855 82.9536 105.693 82.9536C102.84 82.9536 98.5653 78.4901 96.7359 73.5991C95.8156 71.1396 94.7095 66.2262 94.278 62.6822C93.8458 59.1373 92.9558 54.35 92.2986 52.0429L91.104 47.848L88.615 49.1352C84.8676 51.0731 78.7756 57.5304 76.5569 61.915C74.5529 65.8769 71.2162 75.8344 71.2162 77.8537C71.2162 78.6879 72.4754 78.9662 76.2451 78.9662H81.2741L86.8653 102.692L92.4565 126.417L110.347 126.946C133.787 127.641 137.61 127.994 143.788 130.038C149.681 131.989 159.281 136.296 164.341 139.261L167.761 141.266L165.942 144.512C163.635 148.629 158.307 153.343 153.053 155.913C148.558 158.112 136.048 161.163 123 163.241L114.574 164.582L114.505 178.596C114.428 194.223 113.385 205.087 110.95 215.637C109.778 220.712 109.098 222.405 108.548 221.618C107.917 220.718 107.838 220.735 108.106 221.717C108.285 222.375 108.941 222.913 109.562 222.913C110.93 222.913 112.937 215.34 114.735 203.388C115.626 197.465 115.92 190.902 115.737 181.045L115.477 167.089L118.667 166.908C152.502 164.991 171.65 150.059 171.691 125.555L171.7 119.909L166.716 120.989C162.726 121.855 159.664 121.898 151.364 121.203C133.377 119.698 125.901 119.232 124.023 119.498C122.952 119.65 121.421 120.992 120.308 122.754C118.787 125.166 117.933 125.753 115.95 125.753C114.593 125.753 113.483 125.41 113.483 124.99C113.483 124.568 113.006 124.624 112.413 125.116C109.85 127.243 109.507 122.295 111.945 118.351C114.089 114.881 116.815 112.994 123.111 110.623C125.93 109.56 131.828 106.889 136.217 104.685C140.606 102.482 145.719 100.223 147.581 99.6651C149.442 99.1076 150.965 98.2591 150.965 97.7806C150.965 97.3013 150.382 94.0388 149.669 90.5298C147.781 81.2366 147.761 64.6313 149.631 59.2522C151.116 54.9776 154.765 51.0388 157.207 51.0723C157.964 51.0827 157.445 51.6306 156.006 52.3403C150.066 55.2703 148.098 66.9193 150.288 86.1867C150.935 91.8736 151.55 94.3929 152.367 94.7063C153.005 94.9511 156.449 94.5284 160.022 93.7668C166.644 92.3545 183.662 87.1381 183.662 86.5208C183.662 85.2424 179.115 74.5465 176.042 68.598C170.797 58.4403 166.119 54.0334 154.126 47.9469C148.851 45.2697 143.87 43.079 143.057 43.079C142.243 43.079 139.446 45.3575 136.841 48.1431ZM50.8801 81.8379C38.5987 82.582 28.2218 83.4832 27.8206 83.8412C27.3908 84.2256 29.67 94.6401 33.3792 109.243L39.6674 133.993L42.4825 133.996C44.0305 133.999 56.0638 134.729 69.2224 135.62L93.1472 137.24L110.493 133.845C122.276 131.539 127.838 130.124 127.838 129.431C127.838 128.232 127.633 128.221 123.452 129.187C117.739 130.506 94.0507 134.763 93.8019 134.515C93.6687 134.382 90.6773 122.457 87.1532 108.015C83.6299 93.573 80.5723 81.2685 80.3586 80.6712C80.0771 79.8849 79.0388 79.7094 76.5897 80.0356C74.7307 80.2836 63.1615 81.0947 50.8801 81.8379ZM157.912 94.991C152.898 95.8339 151.763 96.2901 151.763 97.464C151.763 98.6714 152.447 98.9035 156.004 98.9035C159.914 98.9035 169.079 100.994 168.352 101.719C168.179 101.893 166.26 101.484 164.086 100.81C161.454 99.9936 158.103 99.6922 154.039 99.9051C148.369 100.203 147.05 100.654 135.248 106.343C128.267 109.708 122.199 112.461 121.764 112.461C119.684 112.461 113.646 117.286 112.375 119.965C110.36 124.209 111.257 125.365 113.486 121.399C114.523 119.553 115.664 118.043 116.022 118.043C116.889 118.043 116.866 118.184 115.467 121.535C113.832 125.446 114.651 125.198 116.712 121.156C118.535 117.584 119.602 117.327 118.29 120.775C116.97 124.249 117.351 125.028 119.026 122.281C121.677 117.933 122.57 117.771 137.3 118.964C157.075 120.564 168.14 120.394 172.099 118.43C177.851 115.576 180.43 107.354 179.313 95.4328L178.765 89.5864L171.414 91.7723C167.371 92.9741 161.294 94.4232 157.912 94.991ZM56.0056 104.195C58.1628 106.937 58.099 109.377 55.8134 111.525C53.2527 113.929 50.1847 113.795 49.0148 111.227C47.7476 108.447 47.8536 105.974 49.3306 103.866C51.0133 101.463 53.972 101.609 56.0056 104.195ZM93.2397 129.806C94.1935 133.817 94.0802 133.806 107.502 131.14C121.94 128.272 121.584 127.916 104.098 127.733L92.7181 127.613L93.2397 129.806ZM128.636 129.894C128.636 131.191 126.443 131.81 111.29 134.801C101.75 136.683 92.6376 138.874 91.0394 139.67C87.284 141.539 82.8867 146.704 81.7119 150.627C79.7047 157.325 80.6768 163.369 89.1374 196.796C91.9964 208.09 94.7015 218.636 95.1497 220.231C95.9248 222.992 96.1657 223.157 100.175 223.657C105.641 224.341 106.947 223.76 107.584 220.365C107.971 218.302 108.306 217.853 108.867 218.648C109.392 219.393 109.485 219.078 109.169 217.62C108.918 216.464 109.28 211.799 109.973 207.253C111.249 198.887 111.816 179.21 111.096 168.321L110.703 162.376L119.869 160.568C137.809 157.029 148.226 154.564 151.915 152.984C155.523 151.439 164.523 143.058 164.523 141.243C164.523 139.487 145.611 131.448 137.158 129.61C130.109 128.077 128.636 128.127 128.636 129.894ZM36.1201 137.8C27.8007 146.118 29.9651 158.528 47.2108 201.381L53.3085 216.533L56.4801 216.456C58.225 216.413 60.9732 215.814 62.5865 215.124L65.5205 213.871L65.1472 207.626C64.4877 196.571 62.3345 182.593 59.6461 171.916C58.2051 166.191 57.1891 161.237 57.3892 160.908C57.5894 160.58 58.3207 160.31 59.0153 160.31C60.5577 160.31 70.0973 157.508 75.8017 155.379C78.5459 154.354 79.9949 153.355 80.0069 152.477C80.0436 149.849 84.4338 143.183 87.8263 140.604L91.2771 137.981L87.4276 137.919C84.4753 137.871 60.1757 136.303 40.618 134.897C39.799 134.838 37.7749 136.145 36.1201 137.8ZM239.703 136.07C239.968 136.335 240.656 136.363 241.231 136.133C241.867 135.878 241.678 135.689 240.749 135.651C239.909 135.617 239.438 135.805 239.703 136.07ZM209.331 143.345C193.842 147.175 181.519 150.425 181.946 150.567C182.788 150.848 237.924 137.418 238.566 136.776C239.365 135.976 236.854 136.54 209.331 143.345ZM156.872 151.072C152.457 154.444 148.932 155.651 133.249 159.162C120.888 161.929 123.837 162.175 137.009 159.475C145.373 157.761 152.449 155.419 156.116 153.154C159.648 150.97 166.118 143.942 166.118 142.286C166.118 141.466 165.02 142.38 163.306 144.624C161.759 146.649 158.864 149.551 156.872 151.072ZM1.83437 146.841C1.83437 148.306 5.2229 175.045 5.44221 175.308C5.62325 175.526 16.9524 178.764 33.4621 183.316L39.1713 184.891L38.0397 181.572L36.9073 178.254L26.768 176.44C21.1911 175.442 16.2602 174.25 15.8104 173.791C15.2442 173.214 15.6062 173.085 16.9867 173.371C31.1573 176.31 35.5467 177.105 35.8617 176.79C36.0683 176.584 35.8155 175.008 35.3003 173.289L34.3633 170.163L24.7335 168.307C13.1643 166.078 7.02924 164.47 9.70721 164.369C10.7471 164.33 16.4508 165.382 22.3818 166.709C28.3127 168.035 33.2803 169.005 33.4206 168.865C33.561 168.725 33.1519 166.869 32.5115 164.742C31.8711 162.615 30.9628 158.664 30.4922 155.964L29.6373 151.053L17.5306 148.593C3.84964 145.813 1.83437 145.588 1.83437 146.841ZM215.961 151.538C213.65 152.126 213.677 152.15 216.758 152.245C225.119 152.504 229.917 155.704 229.917 161.019C229.917 168.595 225.312 173.782 215.961 176.739C213.376 177.557 213.16 177.759 214.821 177.802C217.887 177.881 225.149 173.85 227.668 170.67C231.269 166.125 232.071 158.884 229.462 154.484C227.782 151.651 221.177 150.21 215.961 151.538ZM178.296 151.222C178.561 151.487 179.249 151.516 179.824 151.285C180.461 151.031 180.272 150.842 179.342 150.803C178.502 150.769 178.031 150.957 178.296 151.222ZM175.106 152.02C175.371 152.284 176.059 152.313 176.634 152.083C177.271 151.828 177.082 151.639 176.153 151.601C175.312 151.567 174.841 151.755 175.106 152.02ZM194.017 155.407C189.992 157.546 185.762 164.298 188.447 164.298C188.886 164.298 189.245 163.438 189.245 162.387C189.245 160.058 193.734 155.892 197.022 155.17C200.072 154.501 203.464 155.856 204.368 158.105C204.796 159.171 205.114 159.412 205.145 158.694C205.172 158.023 204.636 156.678 203.953 155.703C202.38 153.457 197.937 153.324 194.017 155.407ZM76.0011 156.323C75.3432 156.748 75.1637 157.096 75.6024 157.096C76.041 157.096 76.9382 156.748 77.5961 156.323C78.254 155.898 78.4335 155.55 77.9948 155.55C77.5562 155.55 76.659 155.898 76.0011 156.323ZM73.7905 158.03C74.2713 158.328 72.0049 159.341 68.7535 160.282C65.5029 161.223 62.3935 162.141 61.8456 162.322C61.297 162.504 60.8544 163.472 60.8607 164.472C60.8711 165.929 61.0242 166.053 61.6287 165.096C62.0442 164.439 66.0747 162.984 70.5853 161.864C76.2874 160.447 78.8601 159.445 79.0276 158.575C79.2166 157.596 78.5762 157.341 76.092 157.406C74.3447 157.452 73.3088 157.733 73.7905 158.03ZM71.6524 162.621C63.2333 165.009 61.4612 166.335 65.782 167.015C67.2359 167.244 71.0287 167.86 74.2115 168.385C77.3935 168.91 80.1927 169.144 80.4312 168.906C80.7757 168.561 80.0508 160.228 79.6863 160.34C79.6337 160.357 76.0179 161.383 71.6524 162.621ZM201.191 167.261C200.104 167.812 198.388 168.267 197.379 168.273C194.765 168.29 191.295 170.262 189.762 172.603C187.518 176.028 188.309 176.21 191.515 173.006C193.753 170.766 195.52 169.789 198.059 169.383C201.801 168.784 205.202 166.089 205.183 163.736C205.174 162.641 204.936 162.771 204.171 164.282C203.62 165.37 202.279 166.71 201.191 167.261ZM165.375 163.87C162.319 165.451 158.932 169.613 158.975 171.736C159.004 173.129 159.313 172.897 160.553 170.55C162.477 166.908 165.493 164.487 168.906 163.847C174.112 162.87 176.706 166.372 174.879 171.909C173.894 174.892 170.55 177.058 166.929 177.058C166.032 177.058 164.034 178.224 162.49 179.65C156.838 184.867 158.398 191.413 165.293 191.413C169.078 191.413 173.412 189.496 174.856 187.183C175.734 185.777 175.504 185.843 173.431 187.588C169.078 191.25 161.349 191.243 160.184 187.576C158.935 183.639 163.179 179.271 169.236 178.259C174.276 177.417 176.485 174.928 176.485 170.094C176.485 164.792 174.883 162.703 170.818 162.703C169.067 162.703 166.618 163.228 165.375 163.87ZM112.566 177.124C112.719 184.764 112.973 191.147 113.128 191.31C113.285 191.474 113.518 185.104 113.647 177.154C113.8 167.769 113.602 162.795 113.084 162.968C112.579 163.137 112.389 168.323 112.566 177.124ZM63.1854 173.923C64.0196 177.621 64.7317 180 64.7692 179.208C64.8553 177.362 62.3903 166.477 61.9796 166.889C61.8081 167.059 62.3512 170.226 63.1854 173.923ZM64.6049 172.466C65.2374 175.204 65.8171 177.491 65.8937 177.547C66.2956 177.843 83.4114 181.068 83.5533 180.875C83.6459 180.749 83.2033 178.287 82.5708 175.404L81.4209 170.16L73.3279 168.942C68.8771 168.271 64.8346 167.67 64.345 167.605C63.7221 167.523 63.8003 168.983 64.6049 172.466ZM117.003 183.238C116.964 191.463 116.546 199.986 116.072 202.178C115.597 204.371 115.27 206.218 115.344 206.283C115.417 206.348 117.361 206.957 119.664 207.637L123.851 208.871V188.578V168.285H120.461H117.072L117.003 183.238ZM201.099 179.662C198.05 181.922 192.033 182.447 190.022 180.629C188.158 178.941 187.888 179.575 189.7 181.387C191.311 182.997 197.339 183.032 200.401 181.449C203.334 179.932 205.208 177.264 205.15 174.687C205.109 172.891 205.001 172.967 204.153 175.388C203.629 176.882 202.255 178.806 201.099 179.662ZM66.16 182.441C66.4328 184.525 66.7924 186.386 66.9591 186.578C67.2247 186.884 84.311 190.547 85.6978 190.597C86.1723 190.613 84.4258 182.808 83.8269 182.237C83.5725 181.993 68.4369 178.92 66.6457 178.748C65.9312 178.678 65.7988 179.682 66.16 182.441ZM175.932 183.223C176.135 183.999 176.314 183.557 176.33 182.241C176.345 180.925 176.18 180.291 175.962 180.831C175.743 181.37 175.73 182.447 175.932 183.223ZM212.757 189.706C199.167 194.469 175.668 202.767 160.535 208.145L133.022 217.925V236.568C133.022 246.822 133.097 255.211 133.189 255.212C133.281 255.212 141.356 251.669 151.133 247.338C160.909 243.007 176.094 236.355 184.875 232.555C193.656 228.755 208.549 221.968 217.971 217.474L235.101 209.302L236.429 198.164C237.679 187.681 238.163 181.045 237.678 181.045C237.56 181.045 226.346 184.942 212.757 189.706ZM65.1058 184.434C65.3267 184.983 65.5077 184.534 65.5077 183.438C65.5077 182.341 65.3267 181.893 65.1058 182.441C64.8841 182.989 64.8841 183.887 65.1058 184.434ZM171.072 197.804L123.791 209.799L119.682 208.579C116.428 207.612 115.442 207.566 114.939 208.358C114.132 209.628 114.086 213.74 114.879 213.749C115.207 213.753 119.299 214.411 123.969 215.21L132.462 216.664L177.401 200.809C202.118 192.088 221.444 185.146 220.347 185.382C219.251 185.617 197.077 191.208 171.072 197.804ZM11.9777 193.11C9.44243 193.611 7.483 194.138 7.62416 194.278C7.8985 194.552 43.5496 200.982 44.7968 200.982C45.4173 200.982 41.2424 189.099 39.8046 186.772C39.5621 186.38 34.2388 187.439 27.9753 189.128C21.7126 190.816 14.5137 192.608 11.9777 193.11ZM67.2287 190.502C67.2287 192.736 67.4225 192.836 77.3457 195.67C82.9098 197.26 87.5982 198.423 87.7649 198.257C87.9316 198.09 87.6844 196.528 87.2154 194.785L86.3621 191.617L78.5898 190.006C67.6147 187.732 67.2287 187.749 67.2287 190.502ZM225.132 200.982C225.132 206.83 224.822 210.552 224.335 210.552C223.891 210.552 223.537 208.422 223.537 205.756V200.959L218.789 203.357L214.041 205.753L213.761 211.143C213.608 214.108 213.44 211.509 213.389 205.369C213.293 193.867 213.503 192.87 214.554 199.845L215.163 203.892L219.35 201.986L223.537 200.08V195.746C223.537 193.362 223.896 191.413 224.335 191.413C224.822 191.413 225.132 195.134 225.132 200.982ZM67.8276 201.737L68.4544 205.282L78.0092 207.068C91.9174 209.668 91.23 209.793 89.9357 204.888C89.3447 202.649 88.631 200.585 88.3479 200.302C88.0656 200.018 83.2878 198.523 77.7309 196.979L67.6274 194.172L67.4137 196.182C67.2965 197.287 67.4823 199.787 67.8276 201.737ZM112.113 199.974C112.297 201.187 112.451 200.384 112.458 198.191C112.463 195.998 112.313 195.006 112.124 195.987C111.935 196.968 111.93 198.762 112.113 199.974ZM5.90875 202.179C6.26125 206.126 6.87291 214.837 7.26848 221.537C7.66322 228.236 8.20393 233.935 8.4687 234.2C8.95836 234.689 52.9815 242.427 55.3692 242.443C56.52 242.451 59.1437 238.003 58.3646 237.365C58.1955 237.227 52.1362 236.149 44.8989 234.968C28.6022 232.312 27.1475 232.025 27.6141 231.559C27.8198 231.353 34.6767 232.285 42.8518 233.629C51.0277 234.972 58.1094 236.072 58.5887 236.072C59.4491 236.072 59.1302 229.303 58.2274 228.4C57.9985 228.171 48.0076 226.488 36.0244 224.658C24.0421 222.829 14.8359 221.217 15.568 221.076C16.2993 220.935 25.7296 222.139 36.5237 223.751C47.3185 225.363 56.3342 226.497 56.5591 226.272C56.784 226.048 56.0335 224.018 54.8899 221.762C53.7471 219.506 51.3586 214.356 49.5826 210.319C47.8074 206.28 46.2012 202.821 46.0138 202.632C45.7267 202.342 5.57222 194.742 5.34492 194.935C5.30186 194.972 5.55547 198.231 5.90875 202.179ZM209.182 196.815C209.182 197.213 207.836 197.943 206.192 198.435L203.201 199.331L203.475 211.122C203.626 217.607 203.51 222.678 203.218 222.389C202.925 222.102 202.423 217.356 202.101 211.844C201.779 206.333 201.322 201.629 201.085 201.392C200.848 201.155 199.304 201.526 197.654 202.215C192.036 204.562 193.761 202.609 199.689 199.911C206.956 196.603 209.182 195.877 209.182 196.815ZM190.678 214.739L190.517 226.901L190.08 216.932L189.644 206.964L187.38 214.141C186.135 218.089 184.816 221.632 184.45 222.015C184.084 222.399 182.519 220.247 180.971 217.23L178.158 211.749L178.119 216.217C178.058 223.186 177.131 230.49 176.308 230.49C175.897 230.49 175.748 229.502 175.977 228.296C176.206 227.091 176.629 222.228 176.917 217.49C177.205 212.753 177.762 208.985 178.153 209.117C178.544 209.248 180.049 211.838 181.497 214.871L184.13 220.385L186.813 211.481C188.289 206.584 189.798 202.577 190.168 202.577C190.538 202.577 190.767 208.051 190.678 214.739ZM109.796 215.904C110.231 216.339 111.908 206.5 111.807 204.107C111.762 203.046 111.221 205.196 110.603 208.882C109.985 212.57 109.622 215.73 109.796 215.904ZM68.0326 212.347C68.0373 217.195 69.2751 228.017 69.8963 228.638C70.3509 229.092 96.9289 232.955 97.2686 232.616C97.4792 232.405 96.2917 227.399 94.6297 221.491L91.6088 210.748L80.8148 208.737C74.8774 207.631 69.5709 206.689 69.0231 206.645C68.3093 206.588 68.0278 208.207 68.0326 212.347ZM169.927 223.512L169.706 234.876L164.309 237.586C161.34 239.076 158.684 240.07 158.408 239.793C158.131 239.516 160.291 238.173 163.208 236.808L168.51 234.326V223.237C168.51 216.178 168.808 212.147 169.329 212.147C169.863 212.147 170.072 216.121 169.927 223.512ZM112.019 221.518C111.14 225.356 110.19 229.968 109.908 231.767L109.395 235.038L114.43 235.893L119.464 236.747L114.48 236.331C109.524 235.918 109.496 235.927 109.496 238.013C109.496 239.167 110 241.317 110.615 242.791C111.631 245.221 112.135 245.526 115.999 246.057C118.343 246.378 120.98 246.963 121.857 247.357C123.233 247.973 123.178 248.022 121.458 247.711C113.758 246.321 111.921 246.293 110.672 247.542C109.9 248.314 108.217 248.771 106.409 248.7C104.765 248.635 102.723 248.987 101.873 249.48C101.021 249.974 100.683 250.389 101.122 250.404C101.561 250.417 108.145 251.505 115.754 252.82C123.363 254.135 130.091 255.212 130.707 255.212C131.635 255.212 131.826 252.04 131.826 236.599V217.987L123.252 216.36C118.538 215.466 114.44 214.69 114.148 214.637C113.856 214.584 112.897 217.68 112.019 221.518ZM72.9387 233.318C74.5305 236.016 74.5417 236.196 73.1852 237.188C71.4442 238.461 71.2162 238.395 86.2273 240.948C98.2495 242.993 98.5087 242.913 98.1403 237.268L97.9321 234.078L86.7672 232.373C80.6266 231.435 74.6278 230.628 73.4364 230.579L71.2696 230.49L72.9387 233.318ZM213.386 236.554C213.651 236.818 214.339 236.847 214.914 236.617C215.55 236.362 215.361 236.173 214.432 236.135C213.592 236.101 213.121 236.289 213.386 236.554ZM210.196 237.351C210.461 237.616 211.149 237.645 211.724 237.414C212.36 237.16 212.171 236.971 211.242 236.933C210.402 236.898 209.931 237.086 210.196 237.351ZM122.839 237.422C122.063 237.625 120.986 237.611 120.446 237.393C119.906 237.174 120.541 237.009 121.857 237.025C123.173 237.041 123.615 237.22 122.839 237.422ZM207.006 238.149C207.271 238.413 207.959 238.442 208.534 238.212C209.17 237.957 208.981 237.768 208.052 237.73C207.212 237.696 206.741 237.884 207.006 238.149ZM203.816 238.946C204.081 239.211 204.769 239.24 205.344 239.009C205.98 238.755 205.791 238.566 204.862 238.528C204.022 238.493 203.551 238.681 203.816 238.946ZM1.31439 243.848C1.59431 246.808 1.82561 253.759 1.8288 259.293L1.83437 269.355L17.5848 274.739C26.248 277.701 47.6606 285.106 65.1688 291.194C82.6769 297.282 97.1586 302.107 97.35 301.915C97.6873 301.578 99.9617 266.147 99.6659 265.85C99.3365 265.522 2.94847 238.571 1.91811 238.52C1.02411 238.476 0.906067 239.519 1.31439 243.848ZM191.988 241.76C186.502 243.134 182.161 244.407 182.342 244.588C182.691 244.937 202.155 240.176 202.73 239.6C203.35 238.98 202.028 239.246 191.988 241.76ZM64.7365 241.511L62.2196 243.76L76.8863 246.2C91.5227 248.635 91.557 248.637 93.7453 247.087C97.7591 244.244 96.6753 243.607 84.1754 241.461C68.5573 238.781 67.7901 238.784 64.7365 241.511ZM179.094 245.326C179.358 245.591 180.047 245.62 180.622 245.389C181.258 245.135 181.069 244.946 180.14 244.907C179.299 244.873 178.829 245.061 179.094 245.326ZM165.673 248.539C159.309 250.132 154.249 251.583 154.429 251.763C154.778 252.113 177.429 246.558 178.006 245.982C178.636 245.352 177.286 245.632 165.673 248.539ZM211.586 248.148C207.173 249.088 203.719 250.014 203.91 250.206C204.277 250.573 221.301 247.303 221.876 246.756C222.602 246.064 219.235 246.519 211.586 248.148ZM37.7438 257.968C83.677 270.034 85.634 270.567 85.2935 270.908C84.7903 271.41 8.34669 251.614 7.483 250.757C6.63049 249.91 11.3405 251.032 37.7438 257.968ZM192.447 259.541C190.903 267.043 190.403 271.308 191.548 267.197C192.331 264.387 197.735 263.07 199.45 265.27C200.801 267.002 200.761 266.866 197.235 257.749C195.824 254.101 194.531 251.255 194.362 251.425C194.192 251.594 193.33 255.246 192.447 259.541ZM213.563 263.032C214.572 268.426 220.123 270.655 223.506 267.023C225.819 264.542 225.529 263.66 223.174 266.014C220.936 268.252 219.036 268.48 216.633 266.798C215.258 265.834 214.834 264.368 214.27 258.624C213.624 252.043 213.568 251.886 213.327 256.009C213.186 258.422 213.292 261.582 213.563 263.032ZM151.181 252.504C151.446 252.768 152.134 252.797 152.709 252.567C153.346 252.312 153.157 252.123 152.228 252.085C151.387 252.051 150.917 252.239 151.181 252.504ZM147.991 253.301C148.256 253.566 148.944 253.595 149.519 253.364C150.156 253.11 149.967 252.921 149.038 252.882C148.197 252.848 147.727 253.036 147.991 253.301ZM144.802 254.099C145.066 254.363 145.755 254.392 146.33 254.162C146.966 253.907 146.777 253.718 145.848 253.68C145.007 253.646 144.537 253.834 144.802 254.099ZM196.307 257.87C197.248 259.99 198.017 262.008 198.017 262.356C198.017 262.94 193.229 264.251 192.775 263.79C192.665 263.678 193.029 261.432 193.585 258.801L194.596 254.016L196.307 257.87ZM141.612 254.896C141.876 255.161 142.565 255.19 143.14 254.959C143.776 254.705 143.587 254.516 142.658 254.477C141.817 254.443 141.347 254.631 141.612 254.896ZM52.0309 270.17C73.7179 277.458 91.1016 283.54 90.6622 283.686C90.222 283.833 73.9141 278.596 54.421 272.048C15.1804 258.868 9.65297 256.924 11.4043 256.922C12.0622 256.92 30.3439 262.882 52.0309 270.17ZM126.459 258.883C126.724 259.148 127.412 259.177 127.987 258.947C128.624 258.692 128.435 258.503 127.506 258.465C126.665 258.431 126.194 258.619 126.459 258.883ZM152.189 269.617C151.44 274.484 151.037 278.676 151.295 278.934C151.552 279.192 151.768 278.535 151.775 277.475C151.792 274.791 152.511 274.022 155.966 272.993C158.942 272.107 158.99 272.129 160.517 275.019C161.365 276.626 162.075 277.713 162.095 277.435C162.129 276.936 155.936 261.762 155.216 260.582C154.261 259.019 153.446 261.451 152.189 269.617ZM179.744 263.984C179.772 264.773 180.02 264.637 180.473 263.586C181.414 261.393 181.414 260.134 180.473 261.592C180.047 262.25 179.719 263.326 179.744 263.984ZM156.403 266.145C158.736 270.648 158.606 271.667 155.623 272.264C154.237 272.541 153.012 272.675 152.901 272.563C152.79 272.45 153.141 270.205 153.682 267.573L154.663 262.788L156.403 266.145ZM171.781 271.446C173.601 275.237 175.351 278.339 175.671 278.339C176.35 278.339 180.004 266.441 179.484 265.92C179.291 265.727 178.476 267.742 177.671 270.397C176.867 273.053 175.918 275.405 175.562 275.625C175.207 275.845 173.581 273.328 171.951 270.032C170.32 266.737 168.871 264.156 168.729 264.296C168.589 264.437 169.962 267.654 171.781 271.446ZM38.9177 277.164C73.8343 289.207 79.3569 291.199 78.9534 291.602C78.7804 291.775 75.0856 290.63 70.7416 289.057C66.3977 287.486 51.18 282.24 36.9248 277.402C12.9522 269.267 7.32829 267.19 9.41054 267.243C9.84915 267.254 23.1274 271.719 38.9177 277.164ZM88.1126 271.706C87.5376 271.937 86.8494 271.908 86.5846 271.643C86.3198 271.379 86.7904 271.19 87.6309 271.225C88.56 271.263 88.749 271.452 88.1126 271.706ZM91.3026 272.504C90.7276 272.734 90.0394 272.706 89.7746 272.441C89.5098 272.176 89.9803 271.988 90.8209 272.022C91.75 272.06 91.939 272.249 91.3026 272.504Z" fill="black"/>
</svg>
