<svg width="19" height="19" viewBox="0 0 19 19" fill="none" xmlns="http://www.w3.org/2000/svg">
<path d="M9.00402 4.8864C6.44951 4.8864 4.38904 6.94687 4.38904 9.50137C4.38904 12.0559 6.44951 14.1163 9.00402 14.1163C11.5585 14.1163 13.619 12.0559 13.619 9.50137C13.619 6.94687 11.5585 4.8864 9.00402 4.8864ZM9.00402 12.5017C7.35323 12.5017 6.00368 11.1562 6.00368 9.50137C6.00368 7.84657 7.34921 6.50104 9.00402 6.50104C10.6588 6.50104 12.0044 7.84657 12.0044 9.50137C12.0044 11.1562 10.6548 12.5017 9.00402 12.5017ZM14.8842 4.69762C14.8842 5.29608 14.4022 5.77405 13.8078 5.77405C13.2093 5.77405 12.7313 5.29207 12.7313 4.69762C12.7313 4.10318 13.2133 3.6212 13.8078 3.6212C14.4022 3.6212 14.8842 4.10318 14.8842 4.69762ZM17.9408 5.79012C17.8725 4.34819 17.5431 3.07094 16.4868 2.01861C15.4345 0.966284 14.1572 0.636931 12.7153 0.564633C11.2292 0.480287 6.77485 0.480287 5.28874 0.564633C3.85083 0.632914 2.57358 0.962268 1.51724 2.01459C0.460895 3.06692 0.135557 4.34417 0.0632601 5.7861C-0.0210867 7.27221 -0.0210867 11.7265 0.0632601 13.2126C0.131541 14.6546 0.460895 15.9318 1.51724 16.9841C2.57358 18.0365 3.84681 18.3658 5.28874 18.4381C6.77485 18.5225 11.2292 18.5225 12.7153 18.4381C14.1572 18.3698 15.4345 18.0405 16.4868 16.9841C17.5391 15.9318 17.8685 14.6546 17.9408 13.2126C18.0251 11.7265 18.0251 7.27623 17.9408 5.79012ZM16.0209 14.8072C15.7076 15.5944 15.1011 16.2009 14.3098 16.5182C13.125 16.9882 10.3134 16.8797 9.00402 16.8797C7.69463 16.8797 4.87906 16.9841 3.6982 16.5182C2.91097 16.2049 2.30447 15.5984 1.98717 14.8072C1.51724 13.6223 1.62568 10.8108 1.62568 9.50137C1.62568 8.19199 1.52125 5.37641 1.98717 4.19556C2.30046 3.40832 2.90695 2.80183 3.6982 2.48453C4.88307 2.01459 7.69463 2.12304 9.00402 2.12304C10.3134 2.12304 13.129 2.01861 14.3098 2.48453C15.0971 2.79781 15.7036 3.40431 16.0209 4.19556C16.4908 5.38043 16.3823 8.19199 16.3823 9.50137C16.3823 10.8108 16.4908 13.6263 16.0209 14.8072Z" fill="#FAFAFF"/>
</svg>
