<svg width="120" height="120" viewBox="0 0 120 120" fill="none" xmlns="http://www.w3.org/2000/svg">
<circle cx="60" cy="60" r="59.0625" stroke="#E6E6E6" stroke-width="1.875"/>
<path d="M57.6643 43.9852C59.0102 42.8383 60.9898 42.8383 62.3357 43.9852L64.625 45.9362C65.2018 46.4277 65.9189 46.7247 66.6743 46.785L69.6726 47.0243C71.4353 47.1649 72.8351 48.5647 72.9757 50.3274L73.215 53.3257C73.2753 54.0811 73.5723 54.7982 74.0638 55.375L76.0148 57.6643C77.1617 59.0102 77.1617 60.9898 76.0148 62.3357L74.0638 64.625C73.5723 65.2018 73.2753 65.9189 73.215 66.6743L72.9757 69.6726C72.8351 71.4353 71.4353 72.8351 69.6726 72.9757L66.6743 73.215C65.9189 73.2753 65.2018 73.5723 64.625 74.0638L62.3357 76.0148C60.9898 77.1617 59.0102 77.1617 57.6643 76.0148L55.375 74.0638C54.7982 73.5723 54.0811 73.2753 53.3257 73.215L50.3274 72.9757C48.5647 72.8351 47.1649 71.4353 47.0243 69.6726L46.785 66.6743C46.7247 65.9189 46.4277 65.2018 45.9362 64.625L43.9852 62.3357C42.8383 60.9898 42.8383 59.0102 43.9852 57.6643L45.9362 55.375C46.4277 54.7982 46.7247 54.0811 46.785 53.3257L47.0243 50.3274C47.1649 48.5647 48.5647 47.1649 50.3274 47.0243L53.3257 46.785C54.0811 46.7247 54.7982 46.4277 55.375 45.9362L57.6643 43.9852Z" stroke="#DD5235" stroke-width="4" stroke-linecap="round" stroke-linejoin="round"/>
<path d="M67.0392 57.6642C67.8203 56.8832 67.8203 55.6168 67.0392 54.8358C66.2582 54.0547 64.9918 54.0547 64.2108 54.8358L67.0392 57.6642ZM58.125 63.75L56.7108 65.1642C57.4918 65.9453 58.7582 65.9453 59.5392 65.1642L58.125 63.75ZM55.7892 58.5858C55.0082 57.8047 53.7418 57.8047 52.9608 58.5858C52.1797 59.3668 52.1797 60.6332 52.9608 61.4142L55.7892 58.5858ZM64.2108 54.8358L56.7108 62.3358L59.5392 65.1642L67.0392 57.6642L64.2108 54.8358ZM59.5392 62.3358L55.7892 58.5858L52.9608 61.4142L56.7108 65.1642L59.5392 62.3358Z" fill="#DD5235"/>
</svg>
