<svg width="120" height="120" viewBox="0 0 120 120" fill="none" xmlns="http://www.w3.org/2000/svg">
<circle cx="60" cy="60" r="59.0625" stroke="#E6E6E6" stroke-width="1.875"/>
<path d="M65.5988 53.3892L60.8508 43.0956C60.5158 42.3692 59.4833 42.3692 59.1482 43.0956L54.4003 53.3892C54.2637 53.6853 53.9831 53.8891 53.6593 53.9275L42.4024 55.2622C41.6079 55.3564 41.2889 56.3383 41.8762 56.8815L50.1988 64.578C50.4382 64.7993 50.5453 65.1292 50.4818 65.449L48.2726 76.5674C48.1167 77.3521 48.9519 77.959 49.65 77.5682L59.5416 72.0313C59.8261 71.8721 60.1729 71.8721 60.4575 72.0313L70.3491 77.5682C71.0471 77.959 71.8824 77.3521 71.7265 76.5674L69.5173 65.449C69.4537 65.1292 69.5609 64.7993 69.8003 64.578L78.1228 56.8815C78.7102 56.3383 78.3911 55.3564 77.5967 55.2622L66.3397 53.9275C66.016 53.8891 65.7354 53.6853 65.5988 53.3892Z" stroke="#DD5235" stroke-width="4" stroke-linecap="round" stroke-linejoin="round"/>
</svg>
