<svg width="18" height="16" viewBox="0 0 18 16" fill="none" xmlns="http://www.w3.org/2000/svg">
<path d="M16.1498 4.14477C16.1612 4.30466 16.1612 4.46459 16.1612 4.62448C16.1612 9.50137 12.4493 15.1207 5.66499 15.1207C3.57488 15.1207 1.63326 14.5153 0 13.4646C0.296966 13.4989 0.582471 13.5103 0.890863 13.5103C2.61546 13.5103 4.20305 12.9278 5.47083 11.9342C3.84899 11.8999 2.48985 10.8377 2.02156 9.37576C2.25001 9.41 2.47842 9.43285 2.71829 9.43285C3.0495 9.43285 3.38074 9.38715 3.6891 9.30724C1.99875 8.96457 0.730936 7.47981 0.730936 5.68666V5.64099C1.22204 5.91511 1.79315 6.08642 2.39844 6.10924C1.40478 5.44679 0.753788 4.31609 0.753788 3.03689C0.753788 2.35162 0.936496 1.72344 1.25631 1.17522C3.07232 3.4138 5.80203 4.87571 8.86293 5.03563C8.80583 4.76152 8.77155 4.47601 8.77155 4.19047C8.77155 2.15745 10.4162 0.501373 12.4607 0.501373C13.5228 0.501373 14.4822 0.946805 15.1561 1.66635C15.9898 1.50646 16.7893 1.19807 17.4975 0.775488C17.2233 1.63211 16.6409 2.35165 15.8756 2.80848C16.618 2.72857 17.3376 2.52294 18 2.23743C17.4975 2.96837 16.8693 3.61936 16.1498 4.14477Z" fill="#FAFAFF"/>
</svg>
