<svg width="18" height="14" viewBox="0 0 18 14" fill="none" xmlns="http://www.w3.org/2000/svg">
<path d="M17.6239 11.4449C17.4169 12.2544 16.8069 12.8919 16.0325 13.1082C14.6288 13.5014 9 13.5014 9 13.5014C9 13.5014 3.37127 13.5014 1.96752 13.1082C1.19308 12.8919 0.583143 12.2544 0.376127 11.4449C0 9.97775 0 6.91659 0 6.91659C0 6.91659 0 3.85543 0.376127 2.38824C0.583143 1.57878 1.19308 0.967834 1.96752 0.751488C3.37127 0.358361 9 0.358362 9 0.358362C9 0.358362 14.6287 0.358361 16.0325 0.751488C16.8069 0.967834 17.4169 1.57878 17.6239 2.38824C18 3.85543 18 6.91659 18 6.91659C18 6.91659 18 9.97775 17.6239 11.4449ZM7.15908 4.13729V9.69589L11.8636 6.91652L7.15908 4.13729Z" fill="#FAFAFF"/>
</svg>
